PathFileType	4	(X/Y/Z)	F:\MotionCapture\20160217\3\Generated_files\EMG_test05-Dynamic.trc
DataRate	CameraRate	NumFrames	NumMarkers	Units	OrigDataRate	OrigDataStartFrame	OrigNumFrames
120.00	120.00	       4	39	mm	120.00	1	       714
Frame#	Time	Top.Head			Front.Head			Rear.Head			R.Shoulder			R.Offset			R.Elbow			R.Wrist			L.Shoulder			L.Elbow			L.Wrist			R.ASIS			L.ASIS			V.Sacral			R.Thigh			R.Knee			R.Shank			R.Ankle			R.Heel			R.Toe			L.Thigh			L.Knee			L.Shank			L.Ankle			L.Heel			L.Toe			R1			R2			R3			R4			R5			R6			R7			L1			L2			L3			L4			L5			L6			L7			V_Mid_ASIS			V_Pelvis_Origin			V_R.Hip_JC			V_L.Hip_JC			V_R.Knee_JC			V_L.Knee_JC			V_R.Ankle_JC			V_L.Ankle_JC			V_Mid_Hip			V_Mid_Shoulder			V_R.Hand			V_L.Hand			V_R.Toe_Offset_Static			V_L.Toe_Offset_Static			V_R.Toe_Offset			V_L.Toe_Offset			
		X1	Y1	Z1	X2	Y2	Z2	X3	Y3	Z3	X4	Y4	Z4	X5	Y5	Z5	X6	Y6	Z6	X7	Y7	Z7	X8	Y8	Z8	X9	Y9	Z9	X10	Y10	Z10	X11	Y11	Z11	X12	Y12	Z12	X13	Y13	Z13	X14	Y14	Z14	X15	Y15	Z15	X16	Y16	Z16	X17	Y17	Z17	X18	Y18	Z18	X19	Y19	Z19	X20	Y20	Z20	X21	Y21	Z21	X22	Y22	Z22	X23	Y23	Z23	X24	Y24	Z24	X25	Y25	Z25	X26	Y26	Z26	X27	Y27	Z27	X28	Y28	Z28	X29	Y29	Z29	X30	Y30	Z30	X31	Y31	Z31	X32	Y32	Z32	X33	Y33	Z33	X34	Y34	Z34	X35	Y35	Z35	X36	Y36	Z36	X37	Y37	Z37	X38	Y38	Z38	X39	Y39	Z39	

1	0.000																																																																																																																																																																						-3381.01904	224.28375	1726.78455	-3364.39819	291.61517	41.11187	-3430.44922	357.94241	459.75241	-3318.16577	64.13857	33.11046	-3342.50635	224.98254	96.02763	-3454.88354	251.99548	45.44385	-3514.08203	337.16235	53.38327	-3356.91699	82.43740	55.21633	-3313.96240	87.53422	570.45874	-3330.72852	-84.52737	878.54523	-3373.13696	335.20203	40.73126	-3373.08081	224.18861	150.91963	-3452.56982	133.92387	58.05063	-3373.34741	50.27254	45.46578	-3414.67700	366.38602	35.23514	-3423.75635	282.64764	323.02460	-3403.01465	436.82013	1417.32471	-3327.92139	302.67340	30.82433	-3400.08154	511.96432	1081.57202	-3416.45313	19.83772	37.94920	-3259.44653	450.05939	874.34027	-3477.39526	345.44302	23.29005	-3335.36133	301.88931	614.48230	-3422.70996	34.70221	95.83855	-3376.50464	386.47809	-5.90739	-3447.93359	173.74956	-47.74467	-3558.26855	228.88039	-25.05664	-3390.21387	111.41114	-42.49082	
2	0.008																																																																																																																																																																						-3381.75586	224.61620	1726.90222	-3364.35840	291.74445	40.84350	-3430.50464	357.90262	459.74786	-3318.18652	63.23144	33.78580	-3455.62451	252.18053	45.52783	-3514.12329	337.45471	53.42287	-3356.87500	82.52082	55.63482	-3313.21362	87.93530	570.32465	-3373.15771	335.26328	40.71328	-3452.76465	133.37454	58.59207	-3373.47681	50.74794	45.65482	-3414.77808	366.47577	35.19889	-3423.75342	282.97125	322.94101	-3377.43408	49.57852	462.52936	-3403.18066	437.18530	1417.08020	-3328.56909	303.58789	31.63609	-3342.67969	225.28404	96.04377	-3399.87549	512.42950	1081.46289	-3416.63062	19.33623	38.01202	-3257.05957	449.24384	875.55878	-3409.31323	399.27777	13.46503	-3477.53638	345.80478	23.48160	-3335.44434	301.96725	614.58704	-3423.07959	35.13622	96.22031	-3448.20801	174.16811	-47.40343	-3558.29224	228.99788	-25.06778	-3390.68750	111.69292	-41.77786	
3	0.017																																																																																																																																																																						-3364.47095	291.85376	40.89313	-3318.73584	63.64873	34.37765	-3382.63623	225.66490	1727.14661	-3455.89429	252.29120	45.76697	-3514.11963	337.59241	53.42941	-3357.03418	82.83481	55.83458	-3335.65601	301.94473	614.72424	-3373.20435	335.29324	40.78133	-3376.71729	49.47526	462.48227	-3453.02417	134.50789	59.13363	-3374.15259	50.90709	46.12754	-3414.78345	366.51025	35.18728	-3423.90918	283.04559	322.79102	-3403.37744	437.43231	1416.89087	-3328.56616	303.16525	31.45384	-3399.55371	511.90747	1081.24146	-3416.87915	19.30258	37.07754	-3255.03418	449.85855	876.80231	-3477.59546	345.96109	23.58152	-3423.38184	35.84483	96.91768	-3270.92432	221.26746	1643.01245	-3308.31250	89.94930	570.68347	-3342.73657	225.33716	95.99654	-3409.36084	399.20398	13.48816	-3448.61743	174.61505	-47.04715	-3558.25488	229.06682	-25.10522	-3391.05811	111.99304	-41.33028	
4	0.025																																																																																																																																																																						-3442.81299	28.74978	37.83604	-3364.51611	292.17093	41.15709	-3376.06860	50.12582	462.58664	-3319.48486	63.72128	34.93341	-3383.38867	225.93199	1727.30835	-3514.13281	337.63455	53.29326	-3364.98608	82.56815	55.35703	-3307.97583	90.15892	570.77228	-3335.89404	302.00595	614.80188	-3373.20654	335.19498	40.68973	-3453.62769	134.78941	58.96941	-3374.69751	51.23895	46.61144	-3414.79077	366.39157	34.98771	-3423.86499	283.43127	322.94843	-3342.82983	225.62578	95.83360	-3403.58521	437.50610	1416.81433	-3328.60791	302.55197	30.99157	-3358.07617	292.94778	73.26061	-3399.00928	511.23312	1080.72900	-3417.06055	21.06809	37.32515	-3253.01538	449.27969	877.58447	-3477.64038	345.88885	23.43549	-3409.36963	399.09970	13.45602	-3271.54370	221.25075	1643.25964	-3449.02637	175.12524	-46.57525	-3558.30884	229.26744	-25.12136	-3391.46777	112.40144	-40.86711	
